<svg width="42" height="32" viewBox="0 0 42 32" fill="none" xmlns="http://www.w3.org/2000/svg">
<path d="M34.8203 3.16016C34.8203 3.16016 34.8203 3.16016 34.752 3.16016C32.1543 1.92969 29.4199 1.10938 26.6172 0.630859C26.5488 0.5625 26.4805 0.630859 26.4805 0.630859C26.0703 1.31445 25.7285 2.06641 25.4551 2.75C22.3789 2.27148 19.3027 2.27148 16.2266 2.75C15.9531 2.06641 15.6113 1.31445 15.2012 0.630859C15.2012 0.630859 15.1328 0.5625 15.0645 0.630859C12.2617 1.10938 9.52734 1.92969 6.92969 3.16016C6.86133 3.16016 6.86133 3.16016 6.86133 3.16016C1.66602 10.9531 0.230469 18.541 0.914062 26.0605C0.914062 26.0605 0.914062 26.1289 0.982422 26.1289C3.99023 28.3848 7.4082 30.0938 11.0312 31.1875C11.0312 31.2559 11.0996 31.1875 11.168 31.1875C11.9199 30.0938 12.6035 29 13.2188 27.8379C13.2188 27.7695 13.2188 27.7012 13.1504 27.6328C12.0566 27.2227 10.9629 26.7441 10.0059 26.1289C9.9375 26.1289 9.86914 25.9922 10.0059 25.9238C10.2109 25.7871 10.416 25.6504 10.6211 25.4453C10.6211 25.4453 10.6895 25.4453 10.7578 25.4453C17.3203 28.4531 24.4297 28.4531 30.9238 25.4453C30.9922 25.4453 30.9922 25.4453 31.0605 25.4453C31.2656 25.6504 31.4707 25.7871 31.6758 25.9238C31.7441 25.9922 31.7441 26.1289 31.6758 26.1289C30.6504 26.7441 29.625 27.2227 28.5312 27.6328C28.4629 27.7012 28.4629 27.7695 28.4629 27.8379C29.0781 29 29.7617 30.0938 30.5137 31.1875C30.582 31.1875 30.582 31.2559 30.6504 31.1875C34.2734 30.0938 37.6914 28.3848 40.6992 26.1289C40.7676 26.1289 40.7676 26.0605 40.7676 26.0605C41.5879 17.3789 39.332 9.85938 34.8203 3.16016ZM14.1758 21.4805C12.1934 21.4805 10.5527 19.6348 10.5527 17.4473C10.5527 15.1914 12.1934 13.4141 14.1758 13.4141C16.2266 13.4141 17.7988 15.1914 17.7988 17.4473C17.7988 19.6348 16.1582 21.4805 14.1758 21.4805ZM27.5059 21.4805C25.5234 21.4805 23.9512 19.6348 23.9512 17.4473C23.9512 15.1914 25.5234 13.4141 27.5059 13.4141C29.5566 13.4141 31.1973 15.1914 31.1289 17.4473C31.1289 19.6348 29.5566 21.4805 27.5059 21.4805Z" fill="#444444"/>
</svg>
