<svg width="20" height="21" viewBox="0 0 20 21" fill="none" xmlns="http://www.w3.org/2000/svg">
<path d="M18.75 7.53125C19.4531 7.88281 20 8.82031 20 9.875C20 10.9688 19.4531 11.9062 18.75 12.2578V18C18.75 18.5078 18.4375 18.9766 17.9688 19.1719C17.5 19.3672 16.9531 19.25 16.6016 18.8984L14.8828 17.1797C13.0078 15.3047 10.4688 14.25 7.8125 14.25H7.5V19.25C7.5 19.9531 6.91406 20.5 6.25 20.5H3.75C3.04688 20.5 2.5 19.9531 2.5 19.25V14.25C1.09375 14.25 0 13.1562 0 11.75V8C0 6.63281 1.09375 5.5 2.5 5.5H7.8125C10.4688 5.5 13.0078 4.44531 14.8828 2.60938L16.6016 0.890625C16.9531 0.539062 17.5 0.421875 17.9688 0.617188C18.4375 0.8125 18.75 1.28125 18.75 1.75V7.53125ZM7.8125 8H7.5V11.75H7.8125C10.9375 11.75 13.9453 12.9219 16.25 15.0312V4.75781C13.9453 6.86719 10.9375 8 7.8125 8Z" fill="white"/>
</svg>
